<svg width="455" height="455" viewBox="0 0 455 455" fill="none" xmlns="http://www.w3.org/2000/svg">
<path d="M372 29.5L353.5 50.5L333.5 74L311.5 99L285 129L253 166L233.5 189.5L214.5 210L192.5 236L145 291.5L124.5 315L105.5 337L88.5 356L64.5 384L45.5 406L28 425.5L11.5 444V439.5L37.5 409.5L56.5 387L79.5 360L108 327L119.5 313L138 291.5L189 232.5L199.5 221L214.5 204L233.5 182L252 161L280 129L295.5 111L309 96.5L322.5 81L338.5 63L353.5 46L369.5 28L382.5 12.5L387 12L372 29.5Z" fill="#874900"/>
<path fill-rule="evenodd" clip-rule="evenodd" d="M398.5 37L379.5 59L355.5 88L331.5 116L309 142L293 161L276.5 180L251.5 209L223.5 242L198.5 270L174.5 298L154.5 321L129.5 349L110.5 370L91.5 392L79.5 405L60.5 426L45.5 443H40.5L59.5 420.5L80.5 396L105.5 366L128.5 339L152.5 311L181.5 278L209.5 245L228.5 223L251.5 197L275.5 169L285.5 158L302.5 139L321.5 117L338.5 98L359.5 74L384.5 46L401.5 27L415 12H419.5L398.5 37ZM284 164.5L249.5 204.5L205.5 255L174.5 290L144.5 325.5L115.5 359L146 325.5L177 290L207.5 255L238.5 219.5L279.5 171.5L329 113L284 164.5Z" fill="#874900"/>
<path d="M442 22.5L426.5 40.5L403.5 67L360.5 117.5L330 153L314 172L277.5 214L253.5 242L211.5 290L161.5 348L131.5 381.5L110.5 405L90.5 427.5L77.5 442.5H73L88.5 424.5L106.5 403.5L129.5 377.5L151.5 352.5L177.5 322.5L201.5 295L227.5 265L251.5 237.5L276.5 209L294.5 189L310 171L326.5 152L354.5 119L380.5 89L405.5 60L426.5 36L442 18.5V22.5Z" fill="#874900"/>
<path fill-rule="evenodd" clip-rule="evenodd" d="M444 93.5L432.5 107L411.5 132L389.5 157.5L367.5 183.5L343 212L318.5 241L297 265.5L271 295L259.5 307.5L239.5 331L216.5 357L197.5 379L172.5 406.5L156.5 425L142 442H137L162.5 411.5L185.5 384.5L209.5 356L234.5 326.5L259.5 297.5L285.5 268L303.5 247L322.5 225L343.5 201.5L362 180.5L382.5 157.5L399.5 138.5L422.5 113L444 89V93.5ZM338.5 211L318 234.5L289.5 267.5L320 234.5L365 181L338.5 211Z" fill="#874900"/>
<path fill-rule="evenodd" clip-rule="evenodd" d="M442.5 59.5L428.5 76L405.5 103L380.5 133L350.5 167.5L335.5 186L307.5 219L283.5 246.5L265 268L237 299.5L213.5 326.5L193.5 349L149.5 398L125.5 425L110.5 441.5H105.5L122 421.5L146.5 391.5L171.5 361.5L197.5 331L222.5 301.5L246.5 274L258 260.5L297.5 215.5L318.5 192L343 163.5L355.5 150.5L376.5 127L399.5 101.5L423.5 75L442.5 54.5V59.5ZM300.5 217L280.5 239L250.5 274L220 309L193.5 340L168 370.5L149.5 392.5L170 370.5L197 340L225.5 309L262 266L304.5 217L349.5 165L389 117L300.5 217Z" fill="#874900"/>
<path d="M443.5 130.5L423.5 152L403 175L380.5 200L350.5 235L329.5 259L297.5 296L278.5 319L262.5 338L242.5 362L221.5 387L201.5 410L186.5 427L174 441.5H169.5L186.5 422L201.5 404L224.5 377L251.5 346L274.5 318L293.5 295L320 263.5L334.5 247L352 226.5L376.5 198.5L397.5 175L422.5 148L443.5 126V130.5Z" fill="#874900"/>
<path fill-rule="evenodd" clip-rule="evenodd" d="M443 168.5L424.5 190L394 225L307.5 326L277.5 360.5L249.5 393L222.5 423L206 441.5H200.5L220.5 415L245.5 383L277.5 345L298.5 321L329.5 286L389.5 220.5L408.5 200L425.5 181.5L443 163V168.5ZM316.5 305.5L283.5 343L257.5 374L225 414.5L261.5 374L288.5 343L332.5 292L349 269.5L316.5 305.5Z" fill="#874900"/>
<path d="M443.5 204.5L429.5 220.5L406.5 248L381.5 277L357.5 305L334.5 332.5L310 360.5L289.5 383.5L268.5 407L249.5 428L237.5 441.5H233L254 417L278.5 389.5L303.5 361L334.5 326L363 293L396.5 254.5L425.5 220L443.5 199.5V204.5Z" fill="#874900"/>
<path d="M443 241.5L419.5 272L393.5 304L370.5 331L343.5 362L315.5 393L298.5 411L283.5 426.5L270 441H266L277.5 428L292.5 412L318 384L350.5 346L373.5 319L399.5 288L425.5 257.5L443 236.5V241.5Z" fill="#874900"/>
<path fill-rule="evenodd" clip-rule="evenodd" d="M443 280.5L429.5 299L411.5 321.5L390.5 347L365.5 375L319.5 423L302 441H296.5L319.5 415L347.5 383L382.5 343.5L421.5 298L443 274V280.5ZM399.5 328L363.5 369.5L336 401L366.5 369.5L389.5 343L414.5 313L426 297L399.5 328Z" fill="#874900"/>
<path d="M443 315.5L433.5 327L415.5 349L395.5 372L377.5 393L352.5 421L333 441H328.5L351.5 416L401.5 360L425.5 331L443 311V315.5Z" fill="#874900"/>
<path d="M442 352L431.5 365L419.5 378L406 393L391.5 408.5L381.5 420L370 434L365.5 441H360L364.5 433.5L378.5 418L393.5 401.5L404.5 388L421.5 369L442 347V352Z" fill="#874900"/>
<path d="M442 391L430.5 405.5L419.5 418L408.5 429L397.5 441H391.5L405.5 425L421.5 407.5L432.5 395L442 385V391Z" fill="#874900"/>
<path d="M442 425L438 429L432.5 435.5L429 441H423L427.5 434L434.5 427L442 421V425Z" fill="#874900"/>
<path d="M346.5 22L335.5 35L320.5 52L303.5 71L289.5 86L274.5 103L259.5 119.5L239 143.5L226.5 158L196.5 192L178.5 213L157 237.5L147.5 249L133.5 265L104.5 299L93.5 312L80.5 327L65.5 345L50.5 362L35.5 380L22.5 395L11.5 407.5V402.5L26.5 385L39.5 370L54.5 352L71.5 332L86.5 314L105.5 292L127.5 266L153.5 236L171.5 215L185.5 198L234 143L255 119L267.5 105L281.5 89L296.5 73L328.5 37L342.5 22L351 12H355L346.5 22Z" fill="#874900"/>
<path d="M310.5 28L300.5 39L285.5 56L271.5 72L259.5 86L245.5 102L235.5 113L218.5 133L192.5 163L180.5 177L167.5 192L156.5 204L135.5 229L125.5 240L113.5 254L84 288L75.5 298L64.5 311L51.5 326L39.5 339L31.5 349L22.5 359L11.5 371V366L22.5 354.5L35.5 338L63.5 306L78.5 288L99 264.5L111.5 250L120.5 240L133.5 225L151.5 204L161.5 193L173.5 179L187.5 163L205.5 142L232 112.5L236.5 107L248.5 93L262.5 77L277.5 60L289.5 46L302.5 32L319.5 12H323.5L310.5 28Z" fill="#874900"/>
<path fill-rule="evenodd" clip-rule="evenodd" d="M278.5 28L266.5 41L238.5 73L223.5 90L210.5 105L197.5 119L174.5 144.5L164.5 156L148.5 175L133.5 192L110.5 218L100.5 230L87.5 245L59.5 278L52.5 286L37.5 304L20.5 324L11.5 334V329L17.5 323L31.5 306L43.5 291L55.5 277.5L75.5 252.5L88.5 237L106.5 215L126.5 191L137.5 178L150.5 163L160.5 151L186.5 121L197.5 108L209.5 94L236.5 64L246.5 53L259.5 40L272.5 26L286 12H291.5L278.5 28ZM239.5 65L207.5 101L189.5 122L156.5 161L192 121L221.5 87.5L240.5 66L259.5 44L239.5 65Z" fill="#874900"/>
<path d="M251.5 22L241.5 34L227.5 49L214.5 64L186.5 96L173.5 111L164.5 121L124 167L110.5 183L89.5 208L80.5 218L72.5 228L62.5 239L40.5 265L32.5 274L25.5 282L19.5 289L11.5 297.5V292.5L18.5 285L26.5 276L38.5 262L52.5 246L76.5 218L87.5 205L107.5 182L117.5 170L155.5 126L162.5 118L169.5 109L176.5 101L186.5 90L196.5 78L209.5 63L223.5 47L234.5 35L247.5 21L255.5 12H259.5L251.5 22Z" fill="#874900"/>
<path d="M211.5 34L203.5 44L188.5 62L164.5 90L142.5 116L124.5 137L73 194.5L66.5 202L54.5 216L45.5 226L34.5 238L25.5 248L17.5 256L10.5 262V257.5L19.5 249L30.5 237L44.5 222L58.5 206L113.5 141L120.5 133L126.5 126L137.5 113L147.5 101L160.5 86L171.5 73L184.5 58L193.5 47.5L201.5 38L217.5 20L224.5 11.5H229L211.5 34Z" fill="#874900"/>
<path d="M194.5 12C195.324 12 195.794 12.9404 195.3 13.5996L190.5 20L174.5 38L165.5 49L155.5 60L147.5 70L137.5 81L127.5 93L116.5 105L106.5 117L95.5 129L84.5 142L73.5 154L63.5 166L53.5 177L42.5 190L32.5 201L22.5 213L12.6914 222.382C12.0554 222.99 11.0004 222.54 11 221.66V219.438C11.0001 219.159 11.1165 218.892 11.3213 218.703L17.5 213L35.5 191L45.5 180L54.5 169L65.5 156L77.5 143L87.5 131L99.5 117L111.5 104L121.5 92L133.5 79L144.5 66L166.5 42L178.5 28L187.5 18L192.2 12.3594C192.39 12.1316 192.672 12 192.969 12H194.5Z" fill="#874900"/>
<path d="M163.442 11C164.277 11 164.744 11.962 164.229 12.6182L154.5 25L132.5 51L112.5 75L101.5 88L83.5 110L75.5 119L67.5 129L51.5 147L45.5 154L37.5 162L28.5 172L20.5 180L14.1582 185.549C13.5116 186.114 12.5 185.655 12.5 184.796V182.414C12.5 182.149 12.6055 181.895 12.793 181.707L21.5 173L27.5 166L35.5 157L46.5 145L55.5 135L63.5 125L72.5 115L83.5 103L93.5 91L103.5 80L112.5 69L123.5 57L133.5 45L140.5 36L148.5 27L156.5 17L161.2 11.3594C161.39 11.1316 161.672 11 161.969 11H163.442Z" fill="#874900"/>
<path d="M132 11C132.824 11 133.294 11.9404 132.8 12.5996L129.5 17L124.5 24L117.5 32L108.5 43L98.5 54L90.5 63L81.5 74L73.5 82L65.5 91L58.5 100L49.5 110L41.5 120L25.5 138L19.5 144L13.6553 149.065C13.0077 149.627 12 149.166 12 148.31V144.964C12 144.67 12.1299 144.39 12.3545 144.2L18.4336 139.057C18.4778 139.019 18.5186 138.977 18.5557 138.933L23.5 133L32.5 123L40.5 114L60.5 92L71.5 80L79.5 70L88.5 59L98.5 48L104.5 40L112.5 31L124.5 17L129.2 11.3594C129.39 11.1316 129.672 11 129.969 11H132Z" fill="#874900"/>
<path fill-rule="evenodd" clip-rule="evenodd" d="M100.536 10.5C101.353 10.5 101.825 11.4269 101.345 12.0879L98.5 16L92.5 23L82.5 35L76.5 42L68.5 51L61.5 59L55.5 66L48.5 75L34.5 91L26.5 99L19.5586 106.934C19.5197 106.978 19.4768 107.019 19.4307 107.056L13.625 111.7C12.9702 112.224 12 111.757 12 110.919V108.438C12.0001 108.159 12.1165 107.892 12.3213 107.703L18.5 102L25.5 94L33.5 84L47.5 66L55.5 56L63.5 47L70.5 39L78.5 30L84.5 24L89.5 18L96.707 10.793C96.8945 10.6055 97.1489 10.5 97.4141 10.5H100.536ZM78.8154 34C78.6155 34 78.425 34.0874 78.2949 34.2393L75.5 37.5L65.5 49L57.5 59L52.6182 63.8818C52.5406 63.9594 52.482 64.0541 52.4473 64.1582L52.4365 64.1895C52.2565 64.7294 52.7706 65.2435 53.3105 65.0635C53.4344 65.0222 53.5443 64.9467 53.627 64.8457L58 59.5L65.5 51L79.3203 35.2051C79.4361 35.0726 79.5 34.9025 79.5 34.7266V34.6846C79.4998 34.3066 79.1934 34.0002 78.8154 34Z" fill="#874900"/>
<path d="M68.4688 11.5C69.2983 11.5 69.7673 12.4518 69.2617 13.1094L65.5 18L57.5 28L33.5 56L28.5 62L18.5 72L14.1406 75.6328C13.4894 76.1755 12.5002 75.7129 12.5 74.8652V72.4141C12.5 72.1489 12.6055 71.8945 12.793 71.707L16.4502 68.0498C16.4835 68.0165 16.5147 67.981 16.543 67.9434L22.457 60.0566C22.4853 60.019 22.5165 59.9835 22.5498 59.9502L25.4414 57.0586C25.4803 57.0197 25.5159 56.9774 25.5479 56.9326L30.5 50L35.5 44L41.5 37L46 32.5L51 26.5L61 16.5L65.2021 11.8311C65.3918 11.6204 65.6619 11.5 65.9453 11.5H68.4688Z" fill="#874900"/>
<path d="M36.2363 12C37.1047 12 37.5607 13.0306 36.9766 13.6729L14.7393 38.0898C14.1241 38.7653 13.0002 38.3305 13 37.417V33.9072C13 33.6463 13.102 33.3957 13.2842 33.209L33.7061 12.3008C33.8941 12.1084 34.1519 12.0001 34.4209 12H36.2363Z" fill="#874900"/>
<path fill-rule="evenodd" clip-rule="evenodd" d="M371.5 1L446.189 1.99609C446.395 1.99887 446.6 2.03352 446.795 2.09863L449.052 2.85059C449.346 2.94877 449.614 3.11443 449.834 3.33398L450.271 3.77051C450.423 3.9225 450.549 4.09779 450.646 4.29004L451.302 5.60352C451.432 5.86435 451.505 6.15087 451.513 6.44238L452 24L453 53L454 84L455 155V311L454.5 361L453 401L452 431L451.513 447.559C451.504 447.849 451.433 448.135 451.303 448.395L450.646 449.71C450.549 449.902 450.423 450.077 450.271 450.229L449.729 450.771C449.577 450.923 449.402 451.049 449.21 451.146L447.922 451.789C447.644 451.928 447.339 452 447.028 452H434.5L376.5 453.5L314.5 454.5H193.5L113.5 453.5L5.95703 452.007C5.65617 452.003 5.35996 451.93 5.09082 451.796L3.79004 451.146C3.59779 451.049 3.4225 450.923 3.27051 450.771L2.86621 450.366C2.62605 450.126 2.45078 449.829 2.35742 449.502L1.57715 446.77C1.5261 446.591 1.5 446.406 1.5 446.22V436L0.5 403L0 371V333.5L1 278L1.5 216V7.32422C1.50004 7.10947 1.53466 6.89612 1.60254 6.69238L2.35059 4.44824C2.44877 4.15369 2.61443 3.88557 2.83398 3.66602L3.27051 3.22949C3.42249 3.07751 3.59779 2.95062 3.79004 2.85449L5.10547 2.19727C5.3654 2.06732 5.65093 1.99585 5.94141 1.9873L39.5 1L117.5 0H263.5L371.5 1ZM15.4717 13.4531C14.3785 13.4794 13.5088 14.3783 13.5195 15.4717L14.5 115L12.5 259.5L13.5 369V438.978C13.5 440.091 14.4094 440.99 15.5225 440.978L104.5 440H291L438.02 440.493C439.116 440.497 440.012 439.616 440.026 438.52L441.5 326V195.5L442.5 92.5L440.55 15.9648C440.522 14.8742 439.625 14.0069 438.534 14.0156L316 15L76 12L15.4717 13.4531Z" fill="#B7BCC2"/>
<path fill-rule="evenodd" clip-rule="evenodd" d="M221.82 109.532L226.036 109.954C226.341 109.985 226.635 110.085 226.896 110.248L230.232 112.333C230.409 112.444 230.604 112.526 230.807 112.577L236.5 114L246 117L257.5 120.5L268.5 124.5L280 129L293 135L302.5 139.5L311.5 144L320 148.5L336 158.5L345.5 165.5L352.5 171L359 177.5L366 185.5L371.5 192L376.5 198.5L381.5 205.5L385.5 212L388.426 217.852C388.475 217.951 388.516 218.053 388.548 218.158L390.44 224.305C390.48 224.434 390.506 224.569 390.519 224.704L391.486 234.85C391.495 234.95 391.497 235.05 391.492 235.15L391.021 243.619C391.007 243.871 390.946 244.118 390.84 244.346L388.084 250.317C388.028 250.438 387.96 250.554 387.881 250.662L382.613 257.846C382.538 257.949 382.453 258.044 382.361 258.13L375.5 264.5L367.139 270.402C367.047 270.467 366.948 270.524 366.846 270.573L356.5 275.5L344 281L332 285L318.5 288L306.5 290.5L290.5 292.5L277 294L266.5 295.5L253.5 297.5L245 299L237 300L231.164 300.972C231.055 300.991 230.945 301 230.834 301H222.606C222.211 301 221.825 300.883 221.497 300.664L217.721 298.147C217.575 298.05 217.442 297.933 217.326 297.801L214.225 294.258C214.076 294.088 213.957 293.893 213.873 293.683L212.143 289.358C212.049 289.122 212 288.869 212 288.615V283.605C212 283.211 212.117 282.824 212.336 282.496L213.81 280.285C213.936 280.096 214.093 279.931 214.274 279.795L217.705 277.221C217.9 277.075 218.12 276.965 218.355 276.898L225 275L230.323 274.032C230.441 274.011 230.56 274 230.68 274H245L253.164 274.961C253.386 274.987 253.612 274.975 253.83 274.927L262.5 273L272.028 272.048C272.296 272.021 272.5 271.795 272.5 271.525C272.5 271.235 272.265 271 271.975 271H269.166C268.734 271 268.312 270.86 267.966 270.6L264.687 268.14C264.563 268.047 264.449 267.94 264.35 267.821L259.703 262.244C259.568 262.083 259.46 261.901 259.382 261.706L256.56 254.651C256.52 254.551 256.489 254.447 256.465 254.342L254.5 245.5L252.539 235.694C252.513 235.565 252.5 235.434 252.5 235.303V209L253 194.5L253.5 186.5V165.72C253.5 165.574 253.484 165.428 253.453 165.286L252.547 161.215C252.516 161.072 252.5 160.926 252.5 160.78V157.872C252.501 157.316 252.732 156.785 253.139 156.407L258.237 151.674C258.799 151.151 258.588 150.215 257.855 149.986L251.5 148L235.5 142L228 138.5L220.665 134.099C220.555 134.033 220.452 133.957 220.357 133.871L215.723 129.701C215.575 129.568 215.448 129.413 215.346 129.243L212.625 124.709C212.542 124.57 212.476 124.422 212.428 124.267L210.78 118.908C210.603 118.334 210.693 117.71 211.027 117.21L213.347 113.729C213.449 113.577 213.571 113.439 213.709 113.32L216.621 110.826C216.87 110.612 217.167 110.463 217.488 110.391L221.187 109.57C221.394 109.524 221.608 109.511 221.82 109.532ZM273.853 153.994C273.072 153.786 272.379 154.543 272.656 155.303L274 159L275.389 165.482C275.463 165.827 275.5 166.178 275.5 166.53V185.5L276.487 226.945C276.496 227.314 276.545 227.681 276.634 228.039L278.5 235.5L282 245.5L284.273 252.772C284.424 253.255 284.5 253.758 284.5 254.263V260.986C284.5 261.973 284.208 262.938 283.661 263.76L281.688 266.718C281.565 266.902 281.5 267.119 281.5 267.34C281.501 267.974 282.027 268.481 282.661 268.459L295.5 268L310.5 266L326 262.5L340 257.5L350.5 252L358.651 246.247C358.883 246.083 359.101 245.898 359.302 245.697L364.15 240.85C364.383 240.618 364.592 240.362 364.775 240.088L366.661 237.26C367.208 236.438 367.5 235.473 367.5 234.486V229.811C367.5 229.274 367.413 228.74 367.244 228.23L365.201 222.102C365.067 221.703 364.884 221.321 364.655 220.968L359.5 213L355 206.5L350.5 200.5L345.5 195L338 188L329.297 180.748C329.1 180.583 328.889 180.434 328.668 180.302L319 174.5L301.5 165L286 158L279.5 155.5L273.853 153.994Z" fill="#B7BCC2"/>
<path d="M178 144.5L176 144L170 146L160 151L145.5 157.5L123.5 167L101.5 175.5L101 177L106.5 182L113.5 187L123.5 192L135.5 197L145.5 201L153.5 205L161.5 209L169.5 214L176.5 219L183.5 225L188.5 231L191.5 237L193.5 245V258L190.5 264L186.5 270L181.5 275L175.5 280L168.5 284L158.5 288L142.5 291H100.5L91.5 290L79.5 287L65.5 282L58.5 277L53.5 271L51.5 265.5V259L52.5 255L55.5 251L60.5 248H67.5L71.5 249L82.5 258L87.5 261L92.5 263L104.5 266H139.5L150.5 264L160.5 261L164.5 258L168.5 252.5V247.5L165.5 244L148.5 230L141.5 227L86.5 203L75.5 196L68.5 189L64.5 183V172L65.5 167L69.5 162L75.5 159L87 156.5L92.5 152L104.5 146L164.5 123L168 122.5L173 122L177.713 121H186.5L190.5 123L194.5 125L197.5 128L198.5 131V140L194.5 145L189.5 147.5H184.5L178 144.5Z" fill="#B7BCC2"/>
</svg>
