<?xml version="1.0" standalone="no"?>
<!DOCTYPE svg PUBLIC "-//W3C//DTD SVG 20010904//EN"
 "http://www.w3.org/TR/2001/REC-SVG-20010904/DTD/svg10.dtd">
<svg version="1.0" xmlns="http://www.w3.org/2000/svg"
 width="380.000000pt" height="380.000000pt" viewBox="0 0 380.000000 380.000000"
 preserveAspectRatio="xMidYMid meet">
<metadata>
Created by potrace 1.14, written by Peter Selinger 2001-2017
</metadata>
<g transform="translate(0.000000,380.000000) scale(0.100000,-0.100000)"
fill="#000000" stroke="none">
<path d="M1610 3521 c-19 -4 -46 -13 -59 -21 -14 -7 -50 -14 -80 -15 -49 -3
-210 -49 -266 -78 -11 -5 -54 -40 -95 -77 -41 -37 -86 -71 -100 -75 -137 -43
-246 -129 -294 -230 -25 -55 -29 -72 -27 -131 1 -57 16 -98 60 -163 l30 -44
-25 -33 c-87 -113 -77 -452 21 -724 9 -25 18 -52 20 -60 2 -8 10 -34 19 -57
17 -48 17 -48 -18 -32 -30 14 -52 0 -71 -44 -14 -34 0 -133 40 -292 14 -55 26
-107 27 -115 1 -24 53 -134 69 -146 8 -7 23 -13 33 -15 11 -2 20 -11 21 -19
11 -76 79 -246 139 -349 30 -51 125 -159 197 -222 115 -103 293 -217 364 -233
175 -41 339 -40 476 0 30 9 55 16 57 15 9 -5 159 83 227 133 74 55 220 193
273 258 81 101 171 274 224 433 l33 100 43 1 c33 1 48 7 67 30 31 35 59 121
75 229 7 44 14 89 16 100 7 38 7 150 0 192 -5 26 -19 55 -37 74 -31 33 -53 33
-98 -2 -29 -23 -43 -16 -31 15 13 35 32 143 36 206 2 30 6 78 9 106 12 120 4
298 -17 379 -6 22 -11 46 -12 53 -1 7 -8 18 -14 24 -7 7 -12 17 -12 23 0 5
-12 23 -26 39 -18 19 -32 50 -41 95 -10 48 -22 74 -44 97 -25 26 -32 44 -39
103 -12 92 -44 140 -129 196 -36 23 -78 57 -93 74 -27 30 -237 141 -268 141
-9 0 -20 4 -26 9 -8 8 -78 27 -134 37 -14 3 -36 7 -50 11 -38 8 -430 11 -470
4z"/>
</g>
</svg>
